DBRep_DrawableShape

CASCADE Topology V1, (c) Matra-Datavision
Locations 2
1
              1               0               0               0 
              0               1               0               1 
              0               0               1               0 
2  1 -1 0
Curve2ds 0
Curves 24
1 -10 0 -10 0 0 1 
1 -10 0 10 -0 1 0 
1 -10 1 -10 0 0 1 
1 -10 0 -10 -0 1 0 
1 -10 0 -10 1 0 -0 
1 10 0 -10 0 0 1 
1 -10 0 10 1 0 -0 
1 0.5 2.1431318985078684e-18 0.035000000000000003 -0.99755896714162673 -4.2758008862475658e-18 -0.069829127699913882 
1 1 0 0 -0.99755896714162673 4.2758008862475658e-18 0.069829127699913882 
1 0.5 -2.1431318985078684e-18 -0.035000000000000003 0.99755896714162673 4.2758008862475658e-18 0.069829127699913882 
1 0 0 0 0.99755896714162673 -4.2758008862475658e-18 -0.069829127699913882 
1 -10 1 10 1 0 -0 
1 10 0 10 0 1 0 
1 -10 1 -10 1 0 -0 
1 10 1 -10 0 0 1 
1 0.5 -2.1431318985078684e-18 -0.035000000000000003 0.99755896714162673 4.2758008862475658e-18 0.069829127699913882 
1 0 0 0 0.99755896714162673 -4.2758008862475658e-18 -0.069829127699913882 
1 0.5 2.1431318985078684e-18 0.035000000000000003 -0.99755896714162673 -4.2758008862475658e-18 -0.069829127699913882 
1 1 0 0 -0.99755896714162673 4.2758008862475658e-18 0.069829127699913882 
1 10 0 -10 -0 1 0 
1 0.5 2.1431318985078684e-18 0.035000000000000003 0 1 0 
1 0 0 0 0 1 0 
1 1 0 0 0 1 0 
1 0.5 -2.1431318985078684e-18 -0.035000000000000003 0 1 0 
Polygon3D 0
PolygonOnTriangulations 0
Surfaces 10
1 -10 0 -10 1 0 -0 0 0 1 0 -1 0 
1 -10 0 -10 -0 1 0 0 0 1 1 0 -0 
1 -10 0 10 0 0 1 1 0 -0 -0 1 0 
1 -10 1 -10 -0 1 0 0 0 1 1 0 -0 
1 -10 0 -10 0 0 1 1 0 -0 -0 1 0 
1 10 0 -10 1 0 -0 0 0 1 0 -1 0 
1 0.5 2.1431318985078684e-18 0.035000000000000003 -0.069829127699913882 0 0.99755896714162673 -0.99755896714162673 -4.2758008862475651e-18 -0.069829127699913882 4.2653635157883729e-18 -1 2.9857544610518619e-19 
1 1 0 0 0.069829127699913882 -0 0.99755896714162673 -0.99755896714162673 4.2758008862475651e-18 0.069829127699913882 -4.2653635157883729e-18 -1 2.9857544610518619e-19 
1 0.5 -2.1431318985078684e-18 -0.035000000000000003 0.069829127699913882 0 -0.99755896714162673 0.99755896714162673 4.2758008862475651e-18 0.069829127699913882 4.2653635157883729e-18 -1 2.9857544610518619e-19 
1 0 0 0 -0.069829127699913882 0 -0.99755896714162673 0.99755896714162673 -4.2758008862475651e-18 -0.069829127699913882 -4.2653635157883729e-18 -1 2.9857544610518619e-19 
Triangulations 0

TShapes 65
Ve
1e-07
-10 0 10
0 0

0101101
*
Ve
1e-07
-10 0 -10
0 0

0101101
*
Ed
 1e-07 1 1 0
1  1 0 0 20
0

0101000
-65 0 +64 0 *
Ve
1e-07
-10 1 10
0 0

0101101
*
Ed
 1e-07 1 1 0
1  2 0 0 1
0

0101000
-62 0 +65 0 *
Ve
1e-07
-10 1 -10
0 0

0101101
*
Ed
 1e-07 1 1 0
1  3 0 0 20
0

0101000
-62 0 +60 0 *
Ed
 1e-07 1 1 0
1  4 0 0 1
0

0101000
-60 0 +64 0 *
Wi

0101000
-63 0 -61 0 +59 0 +58 0 *
Fa
0  1e-07 1 0

0111000
+57 0 *
Ve
1e-07
10 0 -10
0 0

0101101
*
Ed
 1e-07 1 1 0
1  5 0 0 20
0

0101000
-55 0 +64 0 *
Ve
1e-07
10 0 10
0 0

0101101
*
Ed
 1e-07 1 1 0
1  6 0 0 20
0

0101000
-53 0 +55 0 *
Ed
 1e-07 1 1 0
1  7 0 0 20
0

0101000
-53 0 +65 0 *
Wi

0101000
-54 0 -52 0 +63 0 +51 0 *
Ve
1e-07
0.5 2.14313189850787e-18 0.035
0 0

0101101
*
Ve
1e-07
0 0 0
0 0

0101101
*
Ed
 1e-07 1 1 0
1  8 0 0 0.50122350304031
0

0101000
+49 0 -48 0 *
Ve
1e-07
1 0 0
0 0

0101101
*
Ed
 1e-07 1 1 0
1  9 0 0 0.50122350304031
0

0101000
+46 0 -49 0 *
Ve
1e-07
0.5 -2.14313189850787e-18 -0.035
0 0

0101101
*
Ed
 1e-07 1 1 0
1  10 0 0 0.50122350304031
0

0101000
+44 0 -46 0 *
Ed
 1e-07 1 1 0
1  11 0 0 0.50122350304031
0

0101000
+48 0 -44 0 *
Wi

0101000
+47 0 +45 0 +43 0 +42 0 *
Fa
0  1e-07 2 0

0111000
+50 0 +41 0 *
Ve
1e-07
10 1 10
0 0

0101101
*
Ed
 1e-07 1 1 0
1  12 0 0 20
0

0101000
-39 0 +62 0 *
Ed
 1e-07 1 1 0
1  13 0 0 1
0

0101000
-39 0 +53 0 *
Wi

0101000
-61 0 -38 0 +37 0 +51 0 *
Fa
0  1e-07 3 0

0111000
+36 0 *
Ve
1e-07
10 1 -10
0 0

0101101
*
Ed
 1e-07 1 1 0
1  14 0 0 20
0

0101000
-34 0 +60 0 *
Ed
 1e-07 1 1 0
1  15 0 0 20
0

0101000
-39 0 +34 0 *
Wi

0101000
-33 0 -32 0 +59 0 +38 0 *
Ve
1e-07
0.5 1 -0.035
0 0

0101101
*
Ve
1e-07
1 1 0
0 0

0101101
*
Ed
 1e-07 1 1 0
1  16 0 0 0.50122350304031
0

0101000
+30 2 -29 2 *
Ve
1e-07
0 1 0
0 0

0101101
*
Ed
 1e-07 1 1 0
1  17 0 0 0.50122350304031
0

0101000
+27 2 -30 2 *
Ve
1e-07
0.5 1 0.035
0 0

0101101
*
Ed
 1e-07 1 1 0
1  18 0 0 0.50122350304031
0

0101000
+25 2 -27 2 *
Ed
 1e-07 1 1 0
1  19 0 0 0.50122350304031
0

0101000
+29 2 -25 2 *
Wi

0101000
+28 1 +26 1 +24 1 +23 1 *
Fa
0  1e-07 4 0

0111000
+31 0 +22 0 *
Ed
 1e-07 1 1 0
1  20 0 0 1
0

0101000
-34 0 +55 0 *
Wi

0101000
-58 0 -33 0 +20 0 +54 0 *
Fa
0  1e-07 5 0

0111000
+19 0 *
Wi

0101000
-52 0 -37 0 +32 0 +20 0 *
Fa
0  1e-07 6 0

0111000
+17 0 *
Ed
 1e-07 1 1 0
1  21 0 0 1
0

0101000
+49 0 -25 0 *
Ed
 1e-07 1 1 0
1  22 0 0 1
0

0101000
+48 0 -27 0 *
Wi

0101000
+15 0 -47 0 +24 1 -14 0 *
Fa
0  1e-07 7 0

0111000
+13 0 *
Ed
 1e-07 1 1 0
1  23 0 0 1
0

0101000
+46 0 -29 0 *
Wi

0101000
+11 0 -45 0 +23 1 -15 0 *
Fa
0  1e-07 8 0

0111000
+10 0 *
Ed
 1e-07 1 1 0
1  24 0 0 1
0

0101000
+44 0 -30 0 *
Wi

0101000
+8 0 -43 0 +28 1 -11 0 *
Fa
0  1e-07 9 0

0111000
+7 0 *
Wi

0101000
+14 0 -42 0 +26 1 -8 0 *
Fa
0  1e-07 10 0

0111000
+5 0 *
Sh

0101100
-56 0 -40 0 +35 0 +21 0 -18 0 +16 0 -12 0 -9 0 -6 0 -4 0 
*
So

0100000
+3 0 *
Co

1100000
+2 0 *

+1 0 
##EGADS HEADER FILE-REV 1 ##
0
  1  1  10  12  24  16  3
1 5 1
_body
10
1 5 1
_brch
19
2 8 3
_tParams
 7.075485921476e-01  2.830194368590e-02  1.500000000000e+01 
    2 0 4
1 5 2
_body
1 1 
1 5 2
_brch
1 1 
1 5 2
_hist
1 10 
1 7 3
_faceID
1 1 1 
    2 1 4
1 5 2
_body
1 3 
1 5 2
_brch
1 3 
1 5 2
_hist
1 10 
1 7 3
_faceID
1 3 1 
    2 2 4
1 5 2
_body
1 6 
1 5 2
_brch
1 6 
1 5 2
_hist
1 10 
1 7 3
_faceID
1 6 1 
    2 3 4
1 5 2
_body
1 4 
1 5 2
_brch
1 4 
1 5 2
_hist
1 10 
1 7 3
_faceID
1 4 1 
    2 4 4
1 5 2
_body
1 5 
1 5 2
_brch
1 5 
1 5 2
_hist
1 10 
1 7 3
_faceID
1 5 1 
    2 5 4
1 5 2
_body
1 2 
1 5 2
_brch
1 2 
1 5 2
_hist
1 10 
1 7 3
_faceID
1 2 1 
    2 6 4
1 5 2
_body
9 6 
1 5 2
_brch
18 6 
1 5 2
_hist
9 10 
1 7 3
_faceID
9 6 1 
    2 7 4
1 5 2
_body
9 5 
1 5 2
_brch
18 5 
1 5 2
_hist
9 10 
1 7 3
_faceID
9 5 1 
    2 8 4
1 5 2
_body
9 4 
1 5 2
_brch
18 4 
1 5 2
_hist
9 10 
1 7 3
_faceID
9 4 1 
    2 9 4
1 5 2
_body
9 3 
1 5 2
_brch
18 3 
1 5 2
_hist
9 10 
1 7 3
_faceID
9 3 1 
    4 0 3
1 5 2
_body
1 103 
1 6 1
_nface
2
1 7 5
_edgeID
1 1 1 3 1 
    4 1 3
1 5 2
_body
1 106 
1 6 1
_nface
2
1 7 5
_edgeID
1 1 1 6 1 
    4 2 3
1 5 2
_body
1 104 
1 6 1
_nface
2
1 7 5
_edgeID
1 1 1 4 1 
    4 3 3
1 5 2
_body
1 105 
1 6 1
_nface
2
1 7 5
_edgeID
1 1 1 5 1 
    4 4 3
1 5 2
_body
1 305 
1 6 1
_nface
2
1 7 5
_edgeID
1 3 1 5 1 
    4 5 3
1 5 2
_body
1 203 
1 6 1
_nface
2
1 7 5
_edgeID
1 2 1 3 1 
    4 6 3
1 5 2
_body
1 306 
1 6 1
_nface
2
1 7 5
_edgeID
1 3 1 6 1 
    4 7 3
1 5 2
_body
10 0 
1 6 1
_nface
2
1 7 5
_edgeID
1 3 9 6 1 
    4 8 3
1 5 2
_body
10 0 
1 6 1
_nface
2
1 7 5
_edgeID
1 3 9 5 1 
    4 9 3
1 5 2
_body
10 0 
1 6 1
_nface
2
1 7 5
_edgeID
1 3 9 4 1 
    4 10 3
1 5 2
_body
10 0 
1 6 1
_nface
2
1 7 5
_edgeID
1 3 9 3 1 
    4 11 3
1 5 2
_body
1 406 
1 6 1
_nface
2
1 7 5
_edgeID
1 4 1 6 1 
    4 12 3
1 5 2
_body
1 206 
1 6 1
_nface
2
1 7 5
_edgeID
1 2 1 6 1 
    4 13 3
1 5 2
_body
1 405 
1 6 1
_nface
2
1 7 5
_edgeID
1 4 1 5 1 
    4 14 3
1 5 2
_body
1 204 
1 6 1
_nface
2
1 7 5
_edgeID
1 2 1 4 1 
    4 15 3
1 5 2
_body
10 0 
1 6 1
_nface
2
1 7 5
_edgeID
1 4 9 4 1 
    4 16 3
1 5 2
_body
10 0 
1 6 1
_nface
2
1 7 5
_edgeID
1 4 9 3 1 
    4 17 3
1 5 2
_body
10 0 
1 6 1
_nface
2
1 7 5
_edgeID
1 4 9 6 1 
    4 18 3
1 5 2
_body
10 0 
1 6 1
_nface
2
1 7 5
_edgeID
1 4 9 5 1 
    4 19 3
1 5 2
_body
1 205 
1 6 1
_nface
2
1 7 5
_edgeID
1 2 1 5 1 
    4 20 3
1 5 2
_body
9 506 
1 6 1
_nface
2
1 7 5
_edgeID
9 5 9 6 1 
    4 21 3
1 5 2
_body
9 306 
1 6 1
_nface
2
1 7 5
_edgeID
9 3 9 6 1 
    4 22 3
1 5 2
_body
9 405 
1 6 1
_nface
2
1 7 5
_edgeID
9 4 9 5 1 
    4 23 3
1 5 2
_body
9 304 
1 6 1
_nface
2
1 7 5
_edgeID
9 3 9 4 1 
    5 0 2
1 7 1
_nodeID
1
1 6 1
_nedge
3
    5 1 2
1 7 1
_nodeID
2
1 6 1
_nedge
3
    5 2 2
1 7 1
_nodeID
3
1 6 1
_nedge
3
    5 3 2
1 7 1
_nodeID
4
1 6 1
_nedge
3
    5 4 2
1 7 1
_nodeID
5
1 6 1
_nedge
3
    5 5 2
1 7 1
_nodeID
6
1 6 1
_nedge
3
    5 6 2
1 7 1
_nodeID
7
1 6 1
_nedge
3
    5 7 2
1 7 1
_nodeID
8
1 6 1
_nedge
3
    5 8 2
1 7 1
_nodeID
9
1 6 1
_nedge
3
    5 9 2
1 7 1
_nodeID
10
1 6 1
_nedge
3
    5 10 2
1 7 1
_nodeID
11
1 6 1
_nedge
3
    5 11 2
1 7 1
_nodeID
12
1 6 1
_nedge
3
    5 12 2
1 7 1
_nodeID
13
1 6 1
_nedge
3
    5 13 2
1 7 1
_nodeID
14
1 6 1
_nedge
3
    5 14 2
1 7 1
_nodeID
15
1 6 1
_nedge
3
    5 15 2
1 7 1
_nodeID
16
1 6 1
_nedge
3
    0 0 0
