DBRep_DrawableShape

CASCADE Topology V1, (c) Matra-Datavision
Locations 2
1
              1               0               0               0 
              0               1               0               1 
              0               0               1               0 
2  1 -1 0
Curve2ds 16
1 0 1 1 0 
1 0 -0 0 1 
1 6.2831853071795862 -0 0 1 
1 0 0 1 0 
1 3.1415926535897931 0 0 1 
1 3.1415926535897931 0 0 1 
1 0 1 1 0 
1 0 -1 1 0 
1 0 -1 1 0 
1 0 0 1 0 
1 0 0 1 0 
1 0 0 1 0 
1 0.5 0 0 -1 
1 0.5 0 0 -1 
1 1 0 0 -1 
1 0 0 0 -1 
Curves 12
2 0 1 0 -0 1 0 0 -0 1 1 0 0 10
1 -2.4492935982947065e-15 0 10 0 1 0 
2 0 0 0 -0 1 0 0 -0 1 1 0 0 10
7 0 0  1 2 2  1.2246467991473533e-15 0 -10  1.2246467991473533e-15 1 -10 
 0 2 1 2
2 0 1 0 -0 1 0 0 -0 1 1 0 0 10
7 0 0  3 103 101  1 -2.0394466101703365e-33 -3.3306690738754695e-17  0.99967115781247118 2.9255687052078656e-21 4.7778162768967516e-05  0.99835707610455171 1.4616393643928702e-20 0.00023870382307952307  0.9954042519052464 4.0810143344163442e-20 0.00066648021899174607  0.99049930437345857 8.4105211439555855e-20 0.0013735423388704919  0.98365380791329571 1.4406976282469634e-19 0.0023528377802482041  0.97490499406886422 2.1994235484737755e-19 0.0035919312409179527  0.96427762564611641 3.1097379265084955e-19 0.0050785874403519709  0.95182071176306837 4.1612591206196311e-19 0.0067958518709506479  0.93757937505912137 5.3434066167110092e-19 0.0087264452418955359  0.92161160146188081 6.6441303734775666e-19 0.010850688342309749  0.90397977050030753 8.0508637872351319e-19 0.01314805835093099  0.88475362857083806 9.5504379359661955e-19 0.015597048786010108  0.86400901617949444 1.1129339399760219e-18 0.018175590558043183  0.84182780888779463 1.2773818916141368e-18 0.020861229417387932  0.81829755007341387 1.4469981635956981e-18 0.023631273353315496  0.79351111009701403 1.6203828334015419e-18 0.026462859896089479  0.76756631816120346 1.7961255153511984e-18 0.029332955699581803  0.74056557488180752 1.9728017529960721e-18 0.032218297624582261  0.71261544668859467 2.1489667710500737e-18 0.035095290700082146  0.68382624374728873 2.3231477760477655e-18 0.037939882383479569  0.65431158314403859 2.4938361652112094e-18 0.04072743532171913  0.62418793913610848 2.6594810773110862e-18 0.04343262202886123  0.59357418232933912 2.8184856900909405e-18 0.046029364418431175  0.56259110969017967 2.9692075351993913e-18 0.048490838946652522  0.53136096733230853 3.109963869620788e-18 0.050789564334566766  0.50000696802916855 3.2390428250568162e-18 0.05289758365125298  0.46865280538907206 3.3547206722761826e-18 0.05478674626205482  0.43742216658566307 3.4552851096165977e-18 0.056429088158680557  0.40643824546316837 3.5390640404703522e-18 0.057797301931208023  0.37582325773542247 3.6044588723049224e-18 0.058865280582360346  0.34569795987459995 3.6499809781012312e-18 0.059608712987981351  0.31618117314448152 3.6742896367526497e-18 0.060005703510772793  0.28738931407523877 3.676229535195701e-18 0.060037384456567151  0.25943593249520225 3.6548657901414528e-18 0.059688488022605582  0.2324312580069394 3.6095144434071986e-18 0.058947844324098726  0.20648175546904232 3.5397665070946826e-18 0.057808774081787591  0.18168968952152253 3.4455038804579535e-18 0.05626934856412228  0.15815269728644854 3.3269058177246716e-18 0.054332495214799777  0.13596336674639276 3.1844450731877871e-18 0.052005934697333493  0.11520881531905963 3.0188733485932824e-18 0.049301943232859295  0.095970257638432116 2.831196144357643e-18 0.046236941889348536  0.078322541365080614 2.622637486284362e-18 0.042830920525172553  0.062333607992026897 2.394594547800941e-18 0.039106696713993798  0.048063816698380495 2.1485817453242977e-18 0.03508900275279736  0.035564927269936639 1.8861557741448322e-18 0.03080326140497076  0.024878743901711655 1.608800120621066e-18 0.026273699841312212  0.016034705704483714 1.317715540731583e-18 0.021519927895112742  0.0090489359838890147 1.0132615103267656e-18 0.016547816252526652  0.0039305346851139311 6.9408057485431114e-19 0.011335195998349191  0.00073198825485944522 3.5552028052542194e-19 0.0058060867961758278  -0.00034991274043943429 3.983294160488939e-34 6.5052130349130266e-18  0.00073198825485946387 -3.5552028052542358e-19 -0.0058060867961758546  0.0039305346851138618 -6.9408057485430584e-19 -0.011335195998349104  0.0090489359838890511 -1.0132615103267678e-18 -0.016547816252526687  0.016034705704483652 -1.3177155407315793e-18 -0.021519927895112683  0.02487874390171143 -1.6088001206210605e-18 -0.026273699841312118  0.035564927269936701 -1.8861557741448333e-18 -0.030803261404970778  0.048063816698380439 -2.1485817453242958e-18 -0.035089002752797332  0.062333607992026863 -2.3945945478009402e-18 -0.039106696713993784  0.078322541365080475 -2.6226374862843593e-18 -0.042830920525172511  0.095970257638432074 -2.8311961443576438e-18 -0.04623694188934855  0.1152088153190593 -3.0188733485932782e-18 -0.049301943232859226  0.13596336674639281 -3.1844450731877882e-18 -0.052005934697333514  0.15815269728644837 -3.3269058177246696e-18 -0.054332495214799742  0.18168968952152256 -3.4455038804579546e-18 -0.056269348564122301  0.20648175546904238 -3.5397665070946826e-18 -0.057808774081787598  0.23243125800693967 -3.6095144434071993e-18 -0.058947844324098733  0.25943593249520219 -3.6548657901414559e-18 -0.059688488022605631  0.28738931407523899 -3.676229535195701e-18 -0.060037384456567158  0.31618117314448158 -3.6742896367526489e-18 -0.060005703510772779  0.34569795987460006 -3.6499809781012304e-18 -0.059608712987981344  0.37582325773542247 -3.6044588723049216e-18 -0.05886528058236034  0.40643824546316842 -3.539064040470353e-18 -0.057797301931208037  0.43742216658566296 -3.455285109616595e-18 -0.056429088158680515  0.46865280538907195 -3.3547206722761826e-18 -0.05478674626205482  0.50000696802916811 -3.2390428250568158e-18 -0.052897583651252973  0.53136096733230831 -3.1099638696207888e-18 -0.050789564334566779  0.56259110969017956 -2.9692075351993928e-18 -0.048490838946652549  0.5935741823293389 -2.8184856900909382e-18 -0.04602936441843114  0.62418793913610837 -2.6594810773110878e-18 -0.043432622028861251  0.6543115831440387 -2.493836165211209e-18 -0.040727435321719123  0.68382624374728829 -2.323147776047767e-18 -0.037939882383479596  0.71261544668859456 -2.1489667710500768e-18 -0.035095290700082195  0.74056557488180741 -1.9728017529960744e-18 -0.032218297624582302  0.76756631816120346 -1.7961255153511988e-18 -0.02933295569958181  0.79351111009701358 -1.6203828334015409e-18 -0.026462859896089461  0.81829755007341354 -1.446998163595701e-18 -0.023631273353315545  0.84182780888779418 -1.2773818916141397e-18 -0.02086122941738798  0.86400901617949444 -1.1129339399760246e-18 -0.018175590558043225  0.88475362857083806 -9.5504379359661704e-19 -0.015597048786010067  0.90397977050030753 -8.0508637872351222e-19 -0.013148058350930974  0.92161160146188081 -6.644130373477633e-19 -0.010850688342309857  0.93757937505912115 -5.3434066167110179e-19 -0.0087264452418955498  0.95182071176306826 -4.1612591206196533e-19 -0.0067958518709506834  0.96427762564611652 -3.1097379265084864e-19 -0.0050785874403519561  0.97490499406886322 -2.199423548473788e-19 -0.0035919312409179731  0.98365380791329615 -1.4406976282469713e-19 -0.0023528377802482171  0.99049930437345934 -8.410521143955358e-20 -0.0013735423388704549  0.99540425190524617 -4.0810143344165783e-20 -0.00066648021899178434  0.9983570761045516 -1.4616393643929373e-20 -0.00023870382307953405  0.99967115781247129 -2.9255687052078592e-21 -4.7778162768967415e-05  1 2.0394466101703365e-33 3.3306690738754695e-17 
 0 4 0.00048887286860067186 1 0.0019534848954336987 1 0.0043878280227966845 1 0.0077819273858305638 1 0.012121897914785382 1 0.017390021215116319 1 0.023564840640268897 1 0.030621272232787062 1 0.038530729173664319 1 0.047261257534658312 1 0.056777681440741627 1 0.067041756173541661 1 0.078012328229054712 1 0.089645501833058527 1 0.10189481187180599 1 0.11471140358097884 1 0.128044219631367 1 0.14184019544406123 1 0.15604446365631949 1 0.17060056863964146 1 0.1854506918416966 1 0.20053588848024229 1 0.21579633575709004 1 0.23117159228492171 1 0.24660086784050081 1 0.26202330190124618 1 0.27737824873487343 1 0.29260556616219108 1 0.30764590458930513 1 0.32244099260975756 1 0.33693391551739837 1 0.35106938355099343 1 0.36479398770419935 1 0.37805644255964221 1 0.39080781792239883 1 0.40300176414640554 1 0.41459474017550962 1 0.42554625889176201 1 0.43581917226886691 1 0.44538003086519323 1 0.45419957194200561 1 0.46225342514820961 1 0.46952318895714262 1 0.47599815552058194 1 0.48167821099243474 1 0.48657894478763408 1 0.49074098690102302 1 0.49424708632577463 1 0.49725003221810515 1 0.5 1 0.50274996778189485 1 0.50575291367422537 1 0.50925901309897703 1 0.51342105521236592 1 0.51832178900756531 1 0.524001844479418 1 0.53047681104285727 1 0.53774657485179045 1 0.54580042805799434 1 0.55461996913480671 1 0.56418082773113321 1 0.57445374110823799 1 0.58540525982449054 1 0.59699823585359457 1 0.60919218207760117 1 0.6219435574403579 1 0.63520601229580076 1 0.64893061644900674 1 0.66306608448260163 1 0.67755900739024244 1 0.69235409541069515 1 0.70739443383780909 1 0.72262175126512662 1 0.73797669809875399 1 0.75339913215949927 1 0.76882840771507821 1 0.78420366424290999 1 0.79946411151975771 1 0.81454930815830362 1 0.82939943136035854 1 0.84395553634368037 1 0.85815980455593854 1 0.87195578036863308 1 0.88528859641902113 1 0.89810518812819384 1 0.91035449816694136 1 0.92198767177094509 1 0.93295824382645831 1 0.94322231855925842 1 0.95273874246534174 1 0.96146927082633571 1 0.9693787277672129 1 0.97643515935973102 1 0.98260997878488365 1 0.98787810208521465 1 0.99221807261416939 1 0.9956121719772032 1 0.99804651510456621 1 0.99951112713139934 1 1 4
7 0 0  3 103 101  1 -2.0394466101703365e-33 -3.3306690738754695e-17  0.99967115781247118 2.9255687052078656e-21 4.7778162768967516e-05  0.99835707610455171 1.4616393643928702e-20 0.00023870382307952307  0.9954042519052464 4.0810143344163442e-20 0.00066648021899174607  0.99049930437345857 8.4105211439555855e-20 0.0013735423388704919  0.98365380791329571 1.4406976282469634e-19 0.0023528377802482041  0.97490499406886422 2.1994235484737755e-19 0.0035919312409179527  0.96427762564611641 3.1097379265084955e-19 0.0050785874403519709  0.95182071176306837 4.1612591206196311e-19 0.0067958518709506479  0.93757937505912137 5.3434066167110092e-19 0.0087264452418955359  0.92161160146188081 6.6441303734775666e-19 0.010850688342309749  0.90397977050030753 8.0508637872351319e-19 0.01314805835093099  0.88475362857083806 9.5504379359661955e-19 0.015597048786010108  0.86400901617949444 1.1129339399760219e-18 0.018175590558043183  0.84182780888779463 1.2773818916141368e-18 0.020861229417387932  0.81829755007341387 1.4469981635956981e-18 0.023631273353315496  0.79351111009701403 1.6203828334015419e-18 0.026462859896089479  0.76756631816120346 1.7961255153511984e-18 0.029332955699581803  0.74056557488180752 1.9728017529960721e-18 0.032218297624582261  0.71261544668859467 2.1489667710500737e-18 0.035095290700082146  0.68382624374728873 2.3231477760477655e-18 0.037939882383479569  0.65431158314403859 2.4938361652112094e-18 0.04072743532171913  0.62418793913610848 2.6594810773110862e-18 0.04343262202886123  0.59357418232933912 2.8184856900909405e-18 0.046029364418431175  0.56259110969017967 2.9692075351993913e-18 0.048490838946652522  0.53136096733230853 3.109963869620788e-18 0.050789564334566766  0.50000696802916855 3.2390428250568162e-18 0.05289758365125298  0.46865280538907206 3.3547206722761826e-18 0.05478674626205482  0.43742216658566307 3.4552851096165977e-18 0.056429088158680557  0.40643824546316837 3.5390640404703522e-18 0.057797301931208023  0.37582325773542247 3.6044588723049224e-18 0.058865280582360346  0.34569795987459995 3.6499809781012312e-18 0.059608712987981351  0.31618117314448152 3.6742896367526497e-18 0.060005703510772793  0.28738931407523877 3.676229535195701e-18 0.060037384456567151  0.25943593249520225 3.6548657901414528e-18 0.059688488022605582  0.2324312580069394 3.6095144434071986e-18 0.058947844324098726  0.20648175546904232 3.5397665070946826e-18 0.057808774081787591  0.18168968952152253 3.4455038804579535e-18 0.05626934856412228  0.15815269728644854 3.3269058177246716e-18 0.054332495214799777  0.13596336674639276 3.1844450731877871e-18 0.052005934697333493  0.11520881531905963 3.0188733485932824e-18 0.049301943232859295  0.095970257638432116 2.831196144357643e-18 0.046236941889348536  0.078322541365080614 2.622637486284362e-18 0.042830920525172553  0.062333607992026897 2.394594547800941e-18 0.039106696713993798  0.048063816698380495 2.1485817453242977e-18 0.03508900275279736  0.035564927269936639 1.8861557741448322e-18 0.03080326140497076  0.024878743901711655 1.608800120621066e-18 0.026273699841312212  0.016034705704483714 1.317715540731583e-18 0.021519927895112742  0.0090489359838890147 1.0132615103267656e-18 0.016547816252526652  0.0039305346851139311 6.9408057485431114e-19 0.011335195998349191  0.00073198825485944522 3.5552028052542194e-19 0.0058060867961758278  -0.00034991274043943429 3.983294160488939e-34 6.5052130349130266e-18  0.00073198825485946387 -3.5552028052542358e-19 -0.0058060867961758546  0.0039305346851138618 -6.9408057485430584e-19 -0.011335195998349104  0.0090489359838890511 -1.0132615103267678e-18 -0.016547816252526687  0.016034705704483652 -1.3177155407315793e-18 -0.021519927895112683  0.02487874390171143 -1.6088001206210605e-18 -0.026273699841312118  0.035564927269936701 -1.8861557741448333e-18 -0.030803261404970778  0.048063816698380439 -2.1485817453242958e-18 -0.035089002752797332  0.062333607992026863 -2.3945945478009402e-18 -0.039106696713993784  0.078322541365080475 -2.6226374862843593e-18 -0.042830920525172511  0.095970257638432074 -2.8311961443576438e-18 -0.04623694188934855  0.1152088153190593 -3.0188733485932782e-18 -0.049301943232859226  0.13596336674639281 -3.1844450731877882e-18 -0.052005934697333514  0.15815269728644837 -3.3269058177246696e-18 -0.054332495214799742  0.18168968952152256 -3.4455038804579546e-18 -0.056269348564122301  0.20648175546904238 -3.5397665070946826e-18 -0.057808774081787598  0.23243125800693967 -3.6095144434071993e-18 -0.058947844324098733  0.25943593249520219 -3.6548657901414559e-18 -0.059688488022605631  0.28738931407523899 -3.676229535195701e-18 -0.060037384456567158  0.31618117314448158 -3.6742896367526489e-18 -0.060005703510772779  0.34569795987460006 -3.6499809781012304e-18 -0.059608712987981344  0.37582325773542247 -3.6044588723049216e-18 -0.05886528058236034  0.40643824546316842 -3.539064040470353e-18 -0.057797301931208037  0.43742216658566296 -3.455285109616595e-18 -0.056429088158680515  0.46865280538907195 -3.3547206722761826e-18 -0.05478674626205482  0.50000696802916811 -3.2390428250568158e-18 -0.052897583651252973  0.53136096733230831 -3.1099638696207888e-18 -0.050789564334566779  0.56259110969017956 -2.9692075351993928e-18 -0.048490838946652549  0.5935741823293389 -2.8184856900909382e-18 -0.04602936441843114  0.62418793913610837 -2.6594810773110878e-18 -0.043432622028861251  0.6543115831440387 -2.493836165211209e-18 -0.040727435321719123  0.68382624374728829 -2.323147776047767e-18 -0.037939882383479596  0.71261544668859456 -2.1489667710500768e-18 -0.035095290700082195  0.74056557488180741 -1.9728017529960744e-18 -0.032218297624582302  0.76756631816120346 -1.7961255153511988e-18 -0.02933295569958181  0.79351111009701358 -1.6203828334015409e-18 -0.026462859896089461  0.81829755007341354 -1.446998163595701e-18 -0.023631273353315545  0.84182780888779418 -1.2773818916141397e-18 -0.02086122941738798  0.86400901617949444 -1.1129339399760246e-18 -0.018175590558043225  0.88475362857083806 -9.5504379359661704e-19 -0.015597048786010067  0.90397977050030753 -8.0508637872351222e-19 -0.013148058350930974  0.92161160146188081 -6.644130373477633e-19 -0.010850688342309857  0.93757937505912115 -5.3434066167110179e-19 -0.0087264452418955498  0.95182071176306826 -4.1612591206196533e-19 -0.0067958518709506834  0.96427762564611652 -3.1097379265084864e-19 -0.0050785874403519561  0.97490499406886322 -2.199423548473788e-19 -0.0035919312409179731  0.98365380791329615 -1.4406976282469713e-19 -0.0023528377802482171  0.99049930437345934 -8.410521143955358e-20 -0.0013735423388704549  0.99540425190524617 -4.0810143344165783e-20 -0.00066648021899178434  0.9983570761045516 -1.4616393643929373e-20 -0.00023870382307953405  0.99967115781247129 -2.9255687052078592e-21 -4.7778162768967415e-05  1 2.0394466101703365e-33 3.3306690738754695e-17 
 0 4 0.00048887286860067186 1 0.0019534848954336987 1 0.0043878280227966845 1 0.0077819273858305638 1 0.012121897914785382 1 0.017390021215116319 1 0.023564840640268897 1 0.030621272232787062 1 0.038530729173664319 1 0.047261257534658312 1 0.056777681440741627 1 0.067041756173541661 1 0.078012328229054712 1 0.089645501833058527 1 0.10189481187180599 1 0.11471140358097884 1 0.128044219631367 1 0.14184019544406123 1 0.15604446365631949 1 0.17060056863964146 1 0.1854506918416966 1 0.20053588848024229 1 0.21579633575709004 1 0.23117159228492171 1 0.24660086784050081 1 0.26202330190124618 1 0.27737824873487343 1 0.29260556616219108 1 0.30764590458930513 1 0.32244099260975756 1 0.33693391551739837 1 0.35106938355099343 1 0.36479398770419935 1 0.37805644255964221 1 0.39080781792239883 1 0.40300176414640554 1 0.41459474017550962 1 0.42554625889176201 1 0.43581917226886691 1 0.44538003086519323 1 0.45419957194200561 1 0.46225342514820961 1 0.46952318895714262 1 0.47599815552058194 1 0.48167821099243474 1 0.48657894478763408 1 0.49074098690102302 1 0.49424708632577463 1 0.49725003221810515 1 0.5 1 0.50274996778189485 1 0.50575291367422537 1 0.50925901309897703 1 0.51342105521236592 1 0.51832178900756531 1 0.524001844479418 1 0.53047681104285727 1 0.53774657485179045 1 0.54580042805799434 1 0.55461996913480671 1 0.56418082773113321 1 0.57445374110823799 1 0.58540525982449054 1 0.59699823585359457 1 0.60919218207760117 1 0.6219435574403579 1 0.63520601229580076 1 0.64893061644900674 1 0.66306608448260163 1 0.67755900739024244 1 0.69235409541069515 1 0.70739443383780909 1 0.72262175126512662 1 0.73797669809875399 1 0.75339913215949927 1 0.76882840771507821 1 0.78420366424290999 1 0.79946411151975771 1 0.81454930815830362 1 0.82939943136035854 1 0.84395553634368037 1 0.85815980455593854 1 0.87195578036863308 1 0.88528859641902113 1 0.89810518812819384 1 0.91035449816694136 1 0.92198767177094509 1 0.93295824382645831 1 0.94322231855925842 1 0.95273874246534174 1 0.96146927082633571 1 0.9693787277672129 1 0.97643515935973102 1 0.98260997878488365 1 0.98787810208521465 1 0.99221807261416939 1 0.9956121719772032 1 0.99804651510456621 1 0.99951112713139934 1 1 4
2 0 0 0 -0 1 0 0 -0 1 1 0 0 10
7 0 0  3 103 101  1 -2.0394466101703365e-33 -3.3306690738754695e-17  0.99967115781247118 2.9255687052078656e-21 4.7778162768967516e-05  0.99835707610455171 1.4616393643928702e-20 0.00023870382307952307  0.9954042519052464 4.0810143344163442e-20 0.00066648021899174607  0.99049930437345857 8.4105211439555855e-20 0.0013735423388704919  0.98365380791329571 1.4406976282469634e-19 0.0023528377802482041  0.97490499406886422 2.1994235484737755e-19 0.0035919312409179527  0.96427762564611641 3.1097379265084955e-19 0.0050785874403519709  0.95182071176306837 4.1612591206196311e-19 0.0067958518709506479  0.93757937505912137 5.3434066167110092e-19 0.0087264452418955359  0.92161160146188081 6.6441303734775666e-19 0.010850688342309749  0.90397977050030753 8.0508637872351319e-19 0.01314805835093099  0.88475362857083806 9.5504379359661955e-19 0.015597048786010108  0.86400901617949444 1.1129339399760219e-18 0.018175590558043183  0.84182780888779463 1.2773818916141368e-18 0.020861229417387932  0.81829755007341387 1.4469981635956981e-18 0.023631273353315496  0.79351111009701403 1.6203828334015419e-18 0.026462859896089479  0.76756631816120346 1.7961255153511984e-18 0.029332955699581803  0.74056557488180752 1.9728017529960721e-18 0.032218297624582261  0.71261544668859467 2.1489667710500737e-18 0.035095290700082146  0.68382624374728873 2.3231477760477655e-18 0.037939882383479569  0.65431158314403859 2.4938361652112094e-18 0.04072743532171913  0.62418793913610848 2.6594810773110862e-18 0.04343262202886123  0.59357418232933912 2.8184856900909405e-18 0.046029364418431175  0.56259110969017967 2.9692075351993913e-18 0.048490838946652522  0.53136096733230853 3.109963869620788e-18 0.050789564334566766  0.50000696802916855 3.2390428250568162e-18 0.05289758365125298  0.46865280538907206 3.3547206722761826e-18 0.05478674626205482  0.43742216658566307 3.4552851096165977e-18 0.056429088158680557  0.40643824546316837 3.5390640404703522e-18 0.057797301931208023  0.37582325773542247 3.6044588723049224e-18 0.058865280582360346  0.34569795987459995 3.6499809781012312e-18 0.059608712987981351  0.31618117314448152 3.6742896367526497e-18 0.060005703510772793  0.28738931407523877 3.676229535195701e-18 0.060037384456567151  0.25943593249520225 3.6548657901414528e-18 0.059688488022605582  0.2324312580069394 3.6095144434071986e-18 0.058947844324098726  0.20648175546904232 3.5397665070946826e-18 0.057808774081787591  0.18168968952152253 3.4455038804579535e-18 0.05626934856412228  0.15815269728644854 3.3269058177246716e-18 0.054332495214799777  0.13596336674639276 3.1844450731877871e-18 0.052005934697333493  0.11520881531905963 3.0188733485932824e-18 0.049301943232859295  0.095970257638432116 2.831196144357643e-18 0.046236941889348536  0.078322541365080614 2.622637486284362e-18 0.042830920525172553  0.062333607992026897 2.394594547800941e-18 0.039106696713993798  0.048063816698380495 2.1485817453242977e-18 0.03508900275279736  0.035564927269936639 1.8861557741448322e-18 0.03080326140497076  0.024878743901711655 1.608800120621066e-18 0.026273699841312212  0.016034705704483714 1.317715540731583e-18 0.021519927895112742  0.0090489359838890147 1.0132615103267656e-18 0.016547816252526652  0.0039305346851139311 6.9408057485431114e-19 0.011335195998349191  0.00073198825485944522 3.5552028052542194e-19 0.0058060867961758278  -0.00034991274043943429 3.983294160488939e-34 6.5052130349130266e-18  0.00073198825485946387 -3.5552028052542358e-19 -0.0058060867961758546  0.0039305346851138618 -6.9408057485430584e-19 -0.011335195998349104  0.0090489359838890511 -1.0132615103267678e-18 -0.016547816252526687  0.016034705704483652 -1.3177155407315793e-18 -0.021519927895112683  0.02487874390171143 -1.6088001206210605e-18 -0.026273699841312118  0.035564927269936701 -1.8861557741448333e-18 -0.030803261404970778  0.048063816698380439 -2.1485817453242958e-18 -0.035089002752797332  0.062333607992026863 -2.3945945478009402e-18 -0.039106696713993784  0.078322541365080475 -2.6226374862843593e-18 -0.042830920525172511  0.095970257638432074 -2.8311961443576438e-18 -0.04623694188934855  0.1152088153190593 -3.0188733485932782e-18 -0.049301943232859226  0.13596336674639281 -3.1844450731877882e-18 -0.052005934697333514  0.15815269728644837 -3.3269058177246696e-18 -0.054332495214799742  0.18168968952152256 -3.4455038804579546e-18 -0.056269348564122301  0.20648175546904238 -3.5397665070946826e-18 -0.057808774081787598  0.23243125800693967 -3.6095144434071993e-18 -0.058947844324098733  0.25943593249520219 -3.6548657901414559e-18 -0.059688488022605631  0.28738931407523899 -3.676229535195701e-18 -0.060037384456567158  0.31618117314448158 -3.6742896367526489e-18 -0.060005703510772779  0.34569795987460006 -3.6499809781012304e-18 -0.059608712987981344  0.37582325773542247 -3.6044588723049216e-18 -0.05886528058236034  0.40643824546316842 -3.539064040470353e-18 -0.057797301931208037  0.43742216658566296 -3.455285109616595e-18 -0.056429088158680515  0.46865280538907195 -3.3547206722761826e-18 -0.05478674626205482  0.50000696802916811 -3.2390428250568158e-18 -0.052897583651252973  0.53136096733230831 -3.1099638696207888e-18 -0.050789564334566779  0.56259110969017956 -2.9692075351993928e-18 -0.048490838946652549  0.5935741823293389 -2.8184856900909382e-18 -0.04602936441843114  0.62418793913610837 -2.6594810773110878e-18 -0.043432622028861251  0.6543115831440387 -2.493836165211209e-18 -0.040727435321719123  0.68382624374728829 -2.323147776047767e-18 -0.037939882383479596  0.71261544668859456 -2.1489667710500768e-18 -0.035095290700082195  0.74056557488180741 -1.9728017529960744e-18 -0.032218297624582302  0.76756631816120346 -1.7961255153511988e-18 -0.02933295569958181  0.79351111009701358 -1.6203828334015409e-18 -0.026462859896089461  0.81829755007341354 -1.446998163595701e-18 -0.023631273353315545  0.84182780888779418 -1.2773818916141397e-18 -0.02086122941738798  0.86400901617949444 -1.1129339399760246e-18 -0.018175590558043225  0.88475362857083806 -9.5504379359661704e-19 -0.015597048786010067  0.90397977050030753 -8.0508637872351222e-19 -0.013148058350930974  0.92161160146188081 -6.644130373477633e-19 -0.010850688342309857  0.93757937505912115 -5.3434066167110179e-19 -0.0087264452418955498  0.95182071176306826 -4.1612591206196533e-19 -0.0067958518709506834  0.96427762564611652 -3.1097379265084864e-19 -0.0050785874403519561  0.97490499406886322 -2.199423548473788e-19 -0.0035919312409179731  0.98365380791329615 -1.4406976282469713e-19 -0.0023528377802482171  0.99049930437345934 -8.410521143955358e-20 -0.0013735423388704549  0.99540425190524617 -4.0810143344165783e-20 -0.00066648021899178434  0.9983570761045516 -1.4616393643929373e-20 -0.00023870382307953405  0.99967115781247129 -2.9255687052078592e-21 -4.7778162768967415e-05  1 2.0394466101703365e-33 3.3306690738754695e-17 
 0 4 0.00048887286860067186 1 0.0019534848954336987 1 0.0043878280227966845 1 0.0077819273858305638 1 0.012121897914785382 1 0.017390021215116319 1 0.023564840640268897 1 0.030621272232787062 1 0.038530729173664319 1 0.047261257534658312 1 0.056777681440741627 1 0.067041756173541661 1 0.078012328229054712 1 0.089645501833058527 1 0.10189481187180599 1 0.11471140358097884 1 0.128044219631367 1 0.14184019544406123 1 0.15604446365631949 1 0.17060056863964146 1 0.1854506918416966 1 0.20053588848024229 1 0.21579633575709004 1 0.23117159228492171 1 0.24660086784050081 1 0.26202330190124618 1 0.27737824873487343 1 0.29260556616219108 1 0.30764590458930513 1 0.32244099260975756 1 0.33693391551739837 1 0.35106938355099343 1 0.36479398770419935 1 0.37805644255964221 1 0.39080781792239883 1 0.40300176414640554 1 0.41459474017550962 1 0.42554625889176201 1 0.43581917226886691 1 0.44538003086519323 1 0.45419957194200561 1 0.46225342514820961 1 0.46952318895714262 1 0.47599815552058194 1 0.48167821099243474 1 0.48657894478763408 1 0.49074098690102302 1 0.49424708632577463 1 0.49725003221810515 1 0.5 1 0.50274996778189485 1 0.50575291367422537 1 0.50925901309897703 1 0.51342105521236592 1 0.51832178900756531 1 0.524001844479418 1 0.53047681104285727 1 0.53774657485179045 1 0.54580042805799434 1 0.55461996913480671 1 0.56418082773113321 1 0.57445374110823799 1 0.58540525982449054 1 0.59699823585359457 1 0.60919218207760117 1 0.6219435574403579 1 0.63520601229580076 1 0.64893061644900674 1 0.66306608448260163 1 0.67755900739024244 1 0.69235409541069515 1 0.70739443383780909 1 0.72262175126512662 1 0.73797669809875399 1 0.75339913215949927 1 0.76882840771507821 1 0.78420366424290999 1 0.79946411151975771 1 0.81454930815830362 1 0.82939943136035854 1 0.84395553634368037 1 0.85815980455593854 1 0.87195578036863308 1 0.88528859641902113 1 0.89810518812819384 1 0.91035449816694136 1 0.92198767177094509 1 0.93295824382645831 1 0.94322231855925842 1 0.95273874246534174 1 0.96146927082633571 1 0.9693787277672129 1 0.97643515935973102 1 0.98260997878488365 1 0.98787810208521465 1 0.99221807261416939 1 0.9956121719772032 1 0.99804651510456621 1 0.99951112713139934 1 1 4
7 0 0  3 103 101  1 -2.0394466101703365e-33 -3.3306690738754695e-17  0.99967115781247118 2.9255687052078656e-21 4.7778162768967516e-05  0.99835707610455171 1.4616393643928702e-20 0.00023870382307952307  0.9954042519052464 4.0810143344163442e-20 0.00066648021899174607  0.99049930437345857 8.4105211439555855e-20 0.0013735423388704919  0.98365380791329571 1.4406976282469634e-19 0.0023528377802482041  0.97490499406886422 2.1994235484737755e-19 0.0035919312409179527  0.96427762564611641 3.1097379265084955e-19 0.0050785874403519709  0.95182071176306837 4.1612591206196311e-19 0.0067958518709506479  0.93757937505912137 5.3434066167110092e-19 0.0087264452418955359  0.92161160146188081 6.6441303734775666e-19 0.010850688342309749  0.90397977050030753 8.0508637872351319e-19 0.01314805835093099  0.88475362857083806 9.5504379359661955e-19 0.015597048786010108  0.86400901617949444 1.1129339399760219e-18 0.018175590558043183  0.84182780888779463 1.2773818916141368e-18 0.020861229417387932  0.81829755007341387 1.4469981635956981e-18 0.023631273353315496  0.79351111009701403 1.6203828334015419e-18 0.026462859896089479  0.76756631816120346 1.7961255153511984e-18 0.029332955699581803  0.74056557488180752 1.9728017529960721e-18 0.032218297624582261  0.71261544668859467 2.1489667710500737e-18 0.035095290700082146  0.68382624374728873 2.3231477760477655e-18 0.037939882383479569  0.65431158314403859 2.4938361652112094e-18 0.04072743532171913  0.62418793913610848 2.6594810773110862e-18 0.04343262202886123  0.59357418232933912 2.8184856900909405e-18 0.046029364418431175  0.56259110969017967 2.9692075351993913e-18 0.048490838946652522  0.53136096733230853 3.109963869620788e-18 0.050789564334566766  0.50000696802916855 3.2390428250568162e-18 0.05289758365125298  0.46865280538907206 3.3547206722761826e-18 0.05478674626205482  0.43742216658566307 3.4552851096165977e-18 0.056429088158680557  0.40643824546316837 3.5390640404703522e-18 0.057797301931208023  0.37582325773542247 3.6044588723049224e-18 0.058865280582360346  0.34569795987459995 3.6499809781012312e-18 0.059608712987981351  0.31618117314448152 3.6742896367526497e-18 0.060005703510772793  0.28738931407523877 3.676229535195701e-18 0.060037384456567151  0.25943593249520225 3.6548657901414528e-18 0.059688488022605582  0.2324312580069394 3.6095144434071986e-18 0.058947844324098726  0.20648175546904232 3.5397665070946826e-18 0.057808774081787591  0.18168968952152253 3.4455038804579535e-18 0.05626934856412228  0.15815269728644854 3.3269058177246716e-18 0.054332495214799777  0.13596336674639276 3.1844450731877871e-18 0.052005934697333493  0.11520881531905963 3.0188733485932824e-18 0.049301943232859295  0.095970257638432116 2.831196144357643e-18 0.046236941889348536  0.078322541365080614 2.622637486284362e-18 0.042830920525172553  0.062333607992026897 2.394594547800941e-18 0.039106696713993798  0.048063816698380495 2.1485817453242977e-18 0.03508900275279736  0.035564927269936639 1.8861557741448322e-18 0.03080326140497076  0.024878743901711655 1.608800120621066e-18 0.026273699841312212  0.016034705704483714 1.317715540731583e-18 0.021519927895112742  0.0090489359838890147 1.0132615103267656e-18 0.016547816252526652  0.0039305346851139311 6.9408057485431114e-19 0.011335195998349191  0.00073198825485944522 3.5552028052542194e-19 0.0058060867961758278  -0.00034991274043943429 3.983294160488939e-34 6.5052130349130266e-18  0.00073198825485946387 -3.5552028052542358e-19 -0.0058060867961758546  0.0039305346851138618 -6.9408057485430584e-19 -0.011335195998349104  0.0090489359838890511 -1.0132615103267678e-18 -0.016547816252526687  0.016034705704483652 -1.3177155407315793e-18 -0.021519927895112683  0.02487874390171143 -1.6088001206210605e-18 -0.026273699841312118  0.035564927269936701 -1.8861557741448333e-18 -0.030803261404970778  0.048063816698380439 -2.1485817453242958e-18 -0.035089002752797332  0.062333607992026863 -2.3945945478009402e-18 -0.039106696713993784  0.078322541365080475 -2.6226374862843593e-18 -0.042830920525172511  0.095970257638432074 -2.8311961443576438e-18 -0.04623694188934855  0.1152088153190593 -3.0188733485932782e-18 -0.049301943232859226  0.13596336674639281 -3.1844450731877882e-18 -0.052005934697333514  0.15815269728644837 -3.3269058177246696e-18 -0.054332495214799742  0.18168968952152256 -3.4455038804579546e-18 -0.056269348564122301  0.20648175546904238 -3.5397665070946826e-18 -0.057808774081787598  0.23243125800693967 -3.6095144434071993e-18 -0.058947844324098733  0.25943593249520219 -3.6548657901414559e-18 -0.059688488022605631  0.28738931407523899 -3.676229535195701e-18 -0.060037384456567158  0.31618117314448158 -3.6742896367526489e-18 -0.060005703510772779  0.34569795987460006 -3.6499809781012304e-18 -0.059608712987981344  0.37582325773542247 -3.6044588723049216e-18 -0.05886528058236034  0.40643824546316842 -3.539064040470353e-18 -0.057797301931208037  0.43742216658566296 -3.455285109616595e-18 -0.056429088158680515  0.46865280538907195 -3.3547206722761826e-18 -0.05478674626205482  0.50000696802916811 -3.2390428250568158e-18 -0.052897583651252973  0.53136096733230831 -3.1099638696207888e-18 -0.050789564334566779  0.56259110969017956 -2.9692075351993928e-18 -0.048490838946652549  0.5935741823293389 -2.8184856900909382e-18 -0.04602936441843114  0.62418793913610837 -2.6594810773110878e-18 -0.043432622028861251  0.6543115831440387 -2.493836165211209e-18 -0.040727435321719123  0.68382624374728829 -2.323147776047767e-18 -0.037939882383479596  0.71261544668859456 -2.1489667710500768e-18 -0.035095290700082195  0.74056557488180741 -1.9728017529960744e-18 -0.032218297624582302  0.76756631816120346 -1.7961255153511988e-18 -0.02933295569958181  0.79351111009701358 -1.6203828334015409e-18 -0.026462859896089461  0.81829755007341354 -1.446998163595701e-18 -0.023631273353315545  0.84182780888779418 -1.2773818916141397e-18 -0.02086122941738798  0.86400901617949444 -1.1129339399760246e-18 -0.018175590558043225  0.88475362857083806 -9.5504379359661704e-19 -0.015597048786010067  0.90397977050030753 -8.0508637872351222e-19 -0.013148058350930974  0.92161160146188081 -6.644130373477633e-19 -0.010850688342309857  0.93757937505912115 -5.3434066167110179e-19 -0.0087264452418955498  0.95182071176306826 -4.1612591206196533e-19 -0.0067958518709506834  0.96427762564611652 -3.1097379265084864e-19 -0.0050785874403519561  0.97490499406886322 -2.199423548473788e-19 -0.0035919312409179731  0.98365380791329615 -1.4406976282469713e-19 -0.0023528377802482171  0.99049930437345934 -8.410521143955358e-20 -0.0013735423388704549  0.99540425190524617 -4.0810143344165783e-20 -0.00066648021899178434  0.9983570761045516 -1.4616393643929373e-20 -0.00023870382307953405  0.99967115781247129 -2.9255687052078592e-21 -4.7778162768967415e-05  1 2.0394466101703365e-33 3.3306690738754695e-17 
 0 4 0.00048887286860067186 1 0.0019534848954336987 1 0.0043878280227966845 1 0.0077819273858305638 1 0.012121897914785382 1 0.017390021215116319 1 0.023564840640268897 1 0.030621272232787062 1 0.038530729173664319 1 0.047261257534658312 1 0.056777681440741627 1 0.067041756173541661 1 0.078012328229054712 1 0.089645501833058527 1 0.10189481187180599 1 0.11471140358097884 1 0.128044219631367 1 0.14184019544406123 1 0.15604446365631949 1 0.17060056863964146 1 0.1854506918416966 1 0.20053588848024229 1 0.21579633575709004 1 0.23117159228492171 1 0.24660086784050081 1 0.26202330190124618 1 0.27737824873487343 1 0.29260556616219108 1 0.30764590458930513 1 0.32244099260975756 1 0.33693391551739837 1 0.35106938355099343 1 0.36479398770419935 1 0.37805644255964221 1 0.39080781792239883 1 0.40300176414640554 1 0.41459474017550962 1 0.42554625889176201 1 0.43581917226886691 1 0.44538003086519323 1 0.45419957194200561 1 0.46225342514820961 1 0.46952318895714262 1 0.47599815552058194 1 0.48167821099243474 1 0.48657894478763408 1 0.49074098690102302 1 0.49424708632577463 1 0.49725003221810515 1 0.5 1 0.50274996778189485 1 0.50575291367422537 1 0.50925901309897703 1 0.51342105521236592 1 0.51832178900756531 1 0.524001844479418 1 0.53047681104285727 1 0.53774657485179045 1 0.54580042805799434 1 0.55461996913480671 1 0.56418082773113321 1 0.57445374110823799 1 0.58540525982449054 1 0.59699823585359457 1 0.60919218207760117 1 0.6219435574403579 1 0.63520601229580076 1 0.64893061644900674 1 0.66306608448260163 1 0.67755900739024244 1 0.69235409541069515 1 0.70739443383780909 1 0.72262175126512662 1 0.73797669809875399 1 0.75339913215949927 1 0.76882840771507821 1 0.78420366424290999 1 0.79946411151975771 1 0.81454930815830362 1 0.82939943136035854 1 0.84395553634368037 1 0.85815980455593854 1 0.87195578036863308 1 0.88528859641902113 1 0.89810518812819384 1 0.91035449816694136 1 0.92198767177094509 1 0.93295824382645831 1 0.94322231855925842 1 0.95273874246534174 1 0.96146927082633571 1 0.9693787277672129 1 0.97643515935973102 1 0.98260997878488365 1 0.98787810208521465 1 0.99221807261416939 1 0.9956121719772032 1 0.99804651510456621 1 0.99951112713139934 1 1 4
1 0 0 0 0 1 0 
1 1 -2.0394466101703365e-33 -3.3306690738754695e-17 0 1 0 
Polygon3D 0
PolygonOnTriangulations 0
Surfaces 6
10 0 3.1415926535897931 0 1
2 0 0 0 0 1 0 0 -0 1 1 0 0 10
10 3.1415926535897931 6.2831853071795862 0 1
2 0 0 0 0 1 0 0 -0 1 1 0 0 10
1 0 1 0 0 1 0 0 -0 1 1 0 0 
6 -0 -1 -0 
7 0 0  3 103 101  1 -2.0394466101703365e-33 -3.3306690738754695e-17  0.99967115781247118 2.9255687052078656e-21 4.7778162768967516e-05  0.99835707610455171 1.4616393643928702e-20 0.00023870382307952307  0.9954042519052464 4.0810143344163442e-20 0.00066648021899174607  0.99049930437345857 8.4105211439555855e-20 0.0013735423388704919  0.98365380791329571 1.4406976282469634e-19 0.0023528377802482041  0.97490499406886422 2.1994235484737755e-19 0.0035919312409179527  0.96427762564611641 3.1097379265084955e-19 0.0050785874403519709  0.95182071176306837 4.1612591206196311e-19 0.0067958518709506479  0.93757937505912137 5.3434066167110092e-19 0.0087264452418955359  0.92161160146188081 6.6441303734775666e-19 0.010850688342309749  0.90397977050030753 8.0508637872351319e-19 0.01314805835093099  0.88475362857083806 9.5504379359661955e-19 0.015597048786010108  0.86400901617949444 1.1129339399760219e-18 0.018175590558043183  0.84182780888779463 1.2773818916141368e-18 0.020861229417387932  0.81829755007341387 1.4469981635956981e-18 0.023631273353315496  0.79351111009701403 1.6203828334015419e-18 0.026462859896089479  0.76756631816120346 1.7961255153511984e-18 0.029332955699581803  0.74056557488180752 1.9728017529960721e-18 0.032218297624582261  0.71261544668859467 2.1489667710500737e-18 0.035095290700082146  0.68382624374728873 2.3231477760477655e-18 0.037939882383479569  0.65431158314403859 2.4938361652112094e-18 0.04072743532171913  0.62418793913610848 2.6594810773110862e-18 0.04343262202886123  0.59357418232933912 2.8184856900909405e-18 0.046029364418431175  0.56259110969017967 2.9692075351993913e-18 0.048490838946652522  0.53136096733230853 3.109963869620788e-18 0.050789564334566766  0.50000696802916855 3.2390428250568162e-18 0.05289758365125298  0.46865280538907206 3.3547206722761826e-18 0.05478674626205482  0.43742216658566307 3.4552851096165977e-18 0.056429088158680557  0.40643824546316837 3.5390640404703522e-18 0.057797301931208023  0.37582325773542247 3.6044588723049224e-18 0.058865280582360346  0.34569795987459995 3.6499809781012312e-18 0.059608712987981351  0.31618117314448152 3.6742896367526497e-18 0.060005703510772793  0.28738931407523877 3.676229535195701e-18 0.060037384456567151  0.25943593249520225 3.6548657901414528e-18 0.059688488022605582  0.2324312580069394 3.6095144434071986e-18 0.058947844324098726  0.20648175546904232 3.5397665070946826e-18 0.057808774081787591  0.18168968952152253 3.4455038804579535e-18 0.05626934856412228  0.15815269728644854 3.3269058177246716e-18 0.054332495214799777  0.13596336674639276 3.1844450731877871e-18 0.052005934697333493  0.11520881531905963 3.0188733485932824e-18 0.049301943232859295  0.095970257638432116 2.831196144357643e-18 0.046236941889348536  0.078322541365080614 2.622637486284362e-18 0.042830920525172553  0.062333607992026897 2.394594547800941e-18 0.039106696713993798  0.048063816698380495 2.1485817453242977e-18 0.03508900275279736  0.035564927269936639 1.8861557741448322e-18 0.03080326140497076  0.024878743901711655 1.608800120621066e-18 0.026273699841312212  0.016034705704483714 1.317715540731583e-18 0.021519927895112742  0.0090489359838890147 1.0132615103267656e-18 0.016547816252526652  0.0039305346851139311 6.9408057485431114e-19 0.011335195998349191  0.00073198825485944522 3.5552028052542194e-19 0.0058060867961758278  -0.00034991274043943429 3.983294160488939e-34 6.5052130349130266e-18  0.00073198825485946387 -3.5552028052542358e-19 -0.0058060867961758546  0.0039305346851138618 -6.9408057485430584e-19 -0.011335195998349104  0.0090489359838890511 -1.0132615103267678e-18 -0.016547816252526687  0.016034705704483652 -1.3177155407315793e-18 -0.021519927895112683  0.02487874390171143 -1.6088001206210605e-18 -0.026273699841312118  0.035564927269936701 -1.8861557741448333e-18 -0.030803261404970778  0.048063816698380439 -2.1485817453242958e-18 -0.035089002752797332  0.062333607992026863 -2.3945945478009402e-18 -0.039106696713993784  0.078322541365080475 -2.6226374862843593e-18 -0.042830920525172511  0.095970257638432074 -2.8311961443576438e-18 -0.04623694188934855  0.1152088153190593 -3.0188733485932782e-18 -0.049301943232859226  0.13596336674639281 -3.1844450731877882e-18 -0.052005934697333514  0.15815269728644837 -3.3269058177246696e-18 -0.054332495214799742  0.18168968952152256 -3.4455038804579546e-18 -0.056269348564122301  0.20648175546904238 -3.5397665070946826e-18 -0.057808774081787598  0.23243125800693967 -3.6095144434071993e-18 -0.058947844324098733  0.25943593249520219 -3.6548657901414559e-18 -0.059688488022605631  0.28738931407523899 -3.676229535195701e-18 -0.060037384456567158  0.31618117314448158 -3.6742896367526489e-18 -0.060005703510772779  0.34569795987460006 -3.6499809781012304e-18 -0.059608712987981344  0.37582325773542247 -3.6044588723049216e-18 -0.05886528058236034  0.40643824546316842 -3.539064040470353e-18 -0.057797301931208037  0.43742216658566296 -3.455285109616595e-18 -0.056429088158680515  0.46865280538907195 -3.3547206722761826e-18 -0.05478674626205482  0.50000696802916811 -3.2390428250568158e-18 -0.052897583651252973  0.53136096733230831 -3.1099638696207888e-18 -0.050789564334566779  0.56259110969017956 -2.9692075351993928e-18 -0.048490838946652549  0.5935741823293389 -2.8184856900909382e-18 -0.04602936441843114  0.62418793913610837 -2.6594810773110878e-18 -0.043432622028861251  0.6543115831440387 -2.493836165211209e-18 -0.040727435321719123  0.68382624374728829 -2.323147776047767e-18 -0.037939882383479596  0.71261544668859456 -2.1489667710500768e-18 -0.035095290700082195  0.74056557488180741 -1.9728017529960744e-18 -0.032218297624582302  0.76756631816120346 -1.7961255153511988e-18 -0.02933295569958181  0.79351111009701358 -1.6203828334015409e-18 -0.026462859896089461  0.81829755007341354 -1.446998163595701e-18 -0.023631273353315545  0.84182780888779418 -1.2773818916141397e-18 -0.02086122941738798  0.86400901617949444 -1.1129339399760246e-18 -0.018175590558043225  0.88475362857083806 -9.5504379359661704e-19 -0.015597048786010067  0.90397977050030753 -8.0508637872351222e-19 -0.013148058350930974  0.92161160146188081 -6.644130373477633e-19 -0.010850688342309857  0.93757937505912115 -5.3434066167110179e-19 -0.0087264452418955498  0.95182071176306826 -4.1612591206196533e-19 -0.0067958518709506834  0.96427762564611652 -3.1097379265084864e-19 -0.0050785874403519561  0.97490499406886322 -2.199423548473788e-19 -0.0035919312409179731  0.98365380791329615 -1.4406976282469713e-19 -0.0023528377802482171  0.99049930437345934 -8.410521143955358e-20 -0.0013735423388704549  0.99540425190524617 -4.0810143344165783e-20 -0.00066648021899178434  0.9983570761045516 -1.4616393643929373e-20 -0.00023870382307953405  0.99967115781247129 -2.9255687052078592e-21 -4.7778162768967415e-05  1 2.0394466101703365e-33 3.3306690738754695e-17 
 0 4 0.00048887286860067186 1 0.0019534848954336987 1 0.0043878280227966845 1 0.0077819273858305638 1 0.012121897914785382 1 0.017390021215116319 1 0.023564840640268897 1 0.030621272232787062 1 0.038530729173664319 1 0.047261257534658312 1 0.056777681440741627 1 0.067041756173541661 1 0.078012328229054712 1 0.089645501833058527 1 0.10189481187180599 1 0.11471140358097884 1 0.128044219631367 1 0.14184019544406123 1 0.15604446365631949 1 0.17060056863964146 1 0.1854506918416966 1 0.20053588848024229 1 0.21579633575709004 1 0.23117159228492171 1 0.24660086784050081 1 0.26202330190124618 1 0.27737824873487343 1 0.29260556616219108 1 0.30764590458930513 1 0.32244099260975756 1 0.33693391551739837 1 0.35106938355099343 1 0.36479398770419935 1 0.37805644255964221 1 0.39080781792239883 1 0.40300176414640554 1 0.41459474017550962 1 0.42554625889176201 1 0.43581917226886691 1 0.44538003086519323 1 0.45419957194200561 1 0.46225342514820961 1 0.46952318895714262 1 0.47599815552058194 1 0.48167821099243474 1 0.48657894478763408 1 0.49074098690102302 1 0.49424708632577463 1 0.49725003221810515 1 0.5 1 0.50274996778189485 1 0.50575291367422537 1 0.50925901309897703 1 0.51342105521236592 1 0.51832178900756531 1 0.524001844479418 1 0.53047681104285727 1 0.53774657485179045 1 0.54580042805799434 1 0.55461996913480671 1 0.56418082773113321 1 0.57445374110823799 1 0.58540525982449054 1 0.59699823585359457 1 0.60919218207760117 1 0.6219435574403579 1 0.63520601229580076 1 0.64893061644900674 1 0.66306608448260163 1 0.67755900739024244 1 0.69235409541069515 1 0.70739443383780909 1 0.72262175126512662 1 0.73797669809875399 1 0.75339913215949927 1 0.76882840771507821 1 0.78420366424290999 1 0.79946411151975771 1 0.81454930815830362 1 0.82939943136035854 1 0.84395553634368037 1 0.85815980455593854 1 0.87195578036863308 1 0.88528859641902113 1 0.89810518812819384 1 0.91035449816694136 1 0.92198767177094509 1 0.93295824382645831 1 0.94322231855925842 1 0.95273874246534174 1 0.96146927082633571 1 0.9693787277672129 1 0.97643515935973102 1 0.98260997878488365 1 0.98787810208521465 1 0.99221807261416939 1 0.9956121719772032 1 0.99804651510456621 1 0.99951112713139934 1 1 4
6 -0 -1 -0 
7 0 0  3 103 101  1 -2.0394466101703365e-33 -3.3306690738754695e-17  0.99967115781247118 2.9255687052078656e-21 4.7778162768967516e-05  0.99835707610455171 1.4616393643928702e-20 0.00023870382307952307  0.9954042519052464 4.0810143344163442e-20 0.00066648021899174607  0.99049930437345857 8.4105211439555855e-20 0.0013735423388704919  0.98365380791329571 1.4406976282469634e-19 0.0023528377802482041  0.97490499406886422 2.1994235484737755e-19 0.0035919312409179527  0.96427762564611641 3.1097379265084955e-19 0.0050785874403519709  0.95182071176306837 4.1612591206196311e-19 0.0067958518709506479  0.93757937505912137 5.3434066167110092e-19 0.0087264452418955359  0.92161160146188081 6.6441303734775666e-19 0.010850688342309749  0.90397977050030753 8.0508637872351319e-19 0.01314805835093099  0.88475362857083806 9.5504379359661955e-19 0.015597048786010108  0.86400901617949444 1.1129339399760219e-18 0.018175590558043183  0.84182780888779463 1.2773818916141368e-18 0.020861229417387932  0.81829755007341387 1.4469981635956981e-18 0.023631273353315496  0.79351111009701403 1.6203828334015419e-18 0.026462859896089479  0.76756631816120346 1.7961255153511984e-18 0.029332955699581803  0.74056557488180752 1.9728017529960721e-18 0.032218297624582261  0.71261544668859467 2.1489667710500737e-18 0.035095290700082146  0.68382624374728873 2.3231477760477655e-18 0.037939882383479569  0.65431158314403859 2.4938361652112094e-18 0.04072743532171913  0.62418793913610848 2.6594810773110862e-18 0.04343262202886123  0.59357418232933912 2.8184856900909405e-18 0.046029364418431175  0.56259110969017967 2.9692075351993913e-18 0.048490838946652522  0.53136096733230853 3.109963869620788e-18 0.050789564334566766  0.50000696802916855 3.2390428250568162e-18 0.05289758365125298  0.46865280538907206 3.3547206722761826e-18 0.05478674626205482  0.43742216658566307 3.4552851096165977e-18 0.056429088158680557  0.40643824546316837 3.5390640404703522e-18 0.057797301931208023  0.37582325773542247 3.6044588723049224e-18 0.058865280582360346  0.34569795987459995 3.6499809781012312e-18 0.059608712987981351  0.31618117314448152 3.6742896367526497e-18 0.060005703510772793  0.28738931407523877 3.676229535195701e-18 0.060037384456567151  0.25943593249520225 3.6548657901414528e-18 0.059688488022605582  0.2324312580069394 3.6095144434071986e-18 0.058947844324098726  0.20648175546904232 3.5397665070946826e-18 0.057808774081787591  0.18168968952152253 3.4455038804579535e-18 0.05626934856412228  0.15815269728644854 3.3269058177246716e-18 0.054332495214799777  0.13596336674639276 3.1844450731877871e-18 0.052005934697333493  0.11520881531905963 3.0188733485932824e-18 0.049301943232859295  0.095970257638432116 2.831196144357643e-18 0.046236941889348536  0.078322541365080614 2.622637486284362e-18 0.042830920525172553  0.062333607992026897 2.394594547800941e-18 0.039106696713993798  0.048063816698380495 2.1485817453242977e-18 0.03508900275279736  0.035564927269936639 1.8861557741448322e-18 0.03080326140497076  0.024878743901711655 1.608800120621066e-18 0.026273699841312212  0.016034705704483714 1.317715540731583e-18 0.021519927895112742  0.0090489359838890147 1.0132615103267656e-18 0.016547816252526652  0.0039305346851139311 6.9408057485431114e-19 0.011335195998349191  0.00073198825485944522 3.5552028052542194e-19 0.0058060867961758278  -0.00034991274043943429 3.983294160488939e-34 6.5052130349130266e-18  0.00073198825485946387 -3.5552028052542358e-19 -0.0058060867961758546  0.0039305346851138618 -6.9408057485430584e-19 -0.011335195998349104  0.0090489359838890511 -1.0132615103267678e-18 -0.016547816252526687  0.016034705704483652 -1.3177155407315793e-18 -0.021519927895112683  0.02487874390171143 -1.6088001206210605e-18 -0.026273699841312118  0.035564927269936701 -1.8861557741448333e-18 -0.030803261404970778  0.048063816698380439 -2.1485817453242958e-18 -0.035089002752797332  0.062333607992026863 -2.3945945478009402e-18 -0.039106696713993784  0.078322541365080475 -2.6226374862843593e-18 -0.042830920525172511  0.095970257638432074 -2.8311961443576438e-18 -0.04623694188934855  0.1152088153190593 -3.0188733485932782e-18 -0.049301943232859226  0.13596336674639281 -3.1844450731877882e-18 -0.052005934697333514  0.15815269728644837 -3.3269058177246696e-18 -0.054332495214799742  0.18168968952152256 -3.4455038804579546e-18 -0.056269348564122301  0.20648175546904238 -3.5397665070946826e-18 -0.057808774081787598  0.23243125800693967 -3.6095144434071993e-18 -0.058947844324098733  0.25943593249520219 -3.6548657901414559e-18 -0.059688488022605631  0.28738931407523899 -3.676229535195701e-18 -0.060037384456567158  0.31618117314448158 -3.6742896367526489e-18 -0.060005703510772779  0.34569795987460006 -3.6499809781012304e-18 -0.059608712987981344  0.37582325773542247 -3.6044588723049216e-18 -0.05886528058236034  0.40643824546316842 -3.539064040470353e-18 -0.057797301931208037  0.43742216658566296 -3.455285109616595e-18 -0.056429088158680515  0.46865280538907195 -3.3547206722761826e-18 -0.05478674626205482  0.50000696802916811 -3.2390428250568158e-18 -0.052897583651252973  0.53136096733230831 -3.1099638696207888e-18 -0.050789564334566779  0.56259110969017956 -2.9692075351993928e-18 -0.048490838946652549  0.5935741823293389 -2.8184856900909382e-18 -0.04602936441843114  0.62418793913610837 -2.6594810773110878e-18 -0.043432622028861251  0.6543115831440387 -2.493836165211209e-18 -0.040727435321719123  0.68382624374728829 -2.323147776047767e-18 -0.037939882383479596  0.71261544668859456 -2.1489667710500768e-18 -0.035095290700082195  0.74056557488180741 -1.9728017529960744e-18 -0.032218297624582302  0.76756631816120346 -1.7961255153511988e-18 -0.02933295569958181  0.79351111009701358 -1.6203828334015409e-18 -0.026462859896089461  0.81829755007341354 -1.446998163595701e-18 -0.023631273353315545  0.84182780888779418 -1.2773818916141397e-18 -0.02086122941738798  0.86400901617949444 -1.1129339399760246e-18 -0.018175590558043225  0.88475362857083806 -9.5504379359661704e-19 -0.015597048786010067  0.90397977050030753 -8.0508637872351222e-19 -0.013148058350930974  0.92161160146188081 -6.644130373477633e-19 -0.010850688342309857  0.93757937505912115 -5.3434066167110179e-19 -0.0087264452418955498  0.95182071176306826 -4.1612591206196533e-19 -0.0067958518709506834  0.96427762564611652 -3.1097379265084864e-19 -0.0050785874403519561  0.97490499406886322 -2.199423548473788e-19 -0.0035919312409179731  0.98365380791329615 -1.4406976282469713e-19 -0.0023528377802482171  0.99049930437345934 -8.410521143955358e-20 -0.0013735423388704549  0.99540425190524617 -4.0810143344165783e-20 -0.00066648021899178434  0.9983570761045516 -1.4616393643929373e-20 -0.00023870382307953405  0.99967115781247129 -2.9255687052078592e-21 -4.7778162768967415e-05  1 2.0394466101703365e-33 3.3306690738754695e-17 
 0 4 0.00048887286860067186 1 0.0019534848954336987 1 0.0043878280227966845 1 0.0077819273858305638 1 0.012121897914785382 1 0.017390021215116319 1 0.023564840640268897 1 0.030621272232787062 1 0.038530729173664319 1 0.047261257534658312 1 0.056777681440741627 1 0.067041756173541661 1 0.078012328229054712 1 0.089645501833058527 1 0.10189481187180599 1 0.11471140358097884 1 0.128044219631367 1 0.14184019544406123 1 0.15604446365631949 1 0.17060056863964146 1 0.1854506918416966 1 0.20053588848024229 1 0.21579633575709004 1 0.23117159228492171 1 0.24660086784050081 1 0.26202330190124618 1 0.27737824873487343 1 0.29260556616219108 1 0.30764590458930513 1 0.32244099260975756 1 0.33693391551739837 1 0.35106938355099343 1 0.36479398770419935 1 0.37805644255964221 1 0.39080781792239883 1 0.40300176414640554 1 0.41459474017550962 1 0.42554625889176201 1 0.43581917226886691 1 0.44538003086519323 1 0.45419957194200561 1 0.46225342514820961 1 0.46952318895714262 1 0.47599815552058194 1 0.48167821099243474 1 0.48657894478763408 1 0.49074098690102302 1 0.49424708632577463 1 0.49725003221810515 1 0.5 1 0.50274996778189485 1 0.50575291367422537 1 0.50925901309897703 1 0.51342105521236592 1 0.51832178900756531 1 0.524001844479418 1 0.53047681104285727 1 0.53774657485179045 1 0.54580042805799434 1 0.55461996913480671 1 0.56418082773113321 1 0.57445374110823799 1 0.58540525982449054 1 0.59699823585359457 1 0.60919218207760117 1 0.6219435574403579 1 0.63520601229580076 1 0.64893061644900674 1 0.66306608448260163 1 0.67755900739024244 1 0.69235409541069515 1 0.70739443383780909 1 0.72262175126512662 1 0.73797669809875399 1 0.75339913215949927 1 0.76882840771507821 1 0.78420366424290999 1 0.79946411151975771 1 0.81454930815830362 1 0.82939943136035854 1 0.84395553634368037 1 0.85815980455593854 1 0.87195578036863308 1 0.88528859641902113 1 0.89810518812819384 1 0.91035449816694136 1 0.92198767177094509 1 0.93295824382645831 1 0.94322231855925842 1 0.95273874246534174 1 0.96146927082633571 1 0.9693787277672129 1 0.97643515935973102 1 0.98260997878488365 1 0.98787810208521465 1 0.99221807261416939 1 0.9956121719772032 1 0.99804651510456621 1 0.99951112713139934 1 1 4
1 0 0 0 0 1 0 0 -0 1 1 0 0 
Triangulations 0

TShapes 37
Ve
1e-05
1.22464679914735e-15 1 -10
0 0

0101101
*
Ve
1e-07
-2.44929359829471e-15 1 10
0 0

0101101
*
Ed
 1e-07 1 1 0
1  1 0 0 3.14159265358979
2  1 1 0 0 3.14159265358979
0

0101000
-37 0 +36 0 *
Ve
1e-07
-2.44929359829471e-15 0 10
0 0

0101101
*
Ed
 1e-07 1 1 0
1  2 0 0 1
2  2 1 0 0 1
2  3 2 0 0 1
0

0101000
-36 0 +34 0 *
Ve
1e-05
1.22464679914735e-15 0 -10
0 0

0101101
*
Ed
 1e-07 1 1 0
1  3 0 0 3.14159265358979
2  4 1 0 0 3.14159265358979
0

0101000
+34 0 -32 0 *
Ed
 1e-05 1 1 0
1  4 0 0 1
2  5 1 0 0 1
2  6 2 0 0 1
0

0101000
+32 0 -37 0 *
Wi

0101100
-35 0 -33 0 +31 0 +30 0 *
Fa
0  1e-07 1 0

0111000
+29 0 *
Ed
 1e-07 1 1 0
1  5 0 3.14159265358979 6.28318530717959
2  7 2 0 3.14159265358979 6.28318530717959
0

0101000
-36 0 +37 0 *
Wi

0101000
+35 0 +27 0 *
Ve
1e-07
0 1 0
0 0

0101101
*
Ve
1e-07
1 1 -3.33066907387547e-17
0 0

0101101
*
Ed
 1e-07 1 1 0
1  6 0 0.5 1
2  8 4 2 0.5 1
0

0101000
+25 2 -24 2 *
Ed
 1e-07 1 1 0
1  7 0 0 0.5
2  9 5 2 0 0.5
0

0101000
+24 2 -25 2 *
Wi

0101000
+23 1 +22 1 *
Fa
0  1e-07 3 0

0111000
+26 0 +21 0 *
Ed
 1e-07 1 1 0
1  8 0 3.14159265358979 6.28318530717959
2  10 2 0 3.14159265358979 6.28318530717959
0

0101000
+32 0 -34 0 *
Wi

0101100
+19 0 +33 0 -27 0 -30 0 *
Fa
0  1e-07 2 0

0111000
+18 0 *
Wi

0101000
+31 0 +19 0 *
Ve
1e-07
1 -2.03944661017034e-33 -3.33066907387547e-17
0 0

0101101
*
Ve
1e-07
0 0 0
0 0

0101101
*
Ed
 1e-07 1 1 0
1  9 0 0 0.5
2  11 5 0 0 0.5
0

0101000
+15 0 -14 0 *
Ed
 1e-07 1 1 0
1  10 0 0.5 1
2  12 4 0 0.5 1
0

0101000
+14 0 -15 0 *
Wi

0101000
+13 0 +12 0 *
Fa
0  1e-07 6 0

0111000
+16 0 +11 0 *
Ed
 1e-07 1 1 0
1  11 0 0 1
2  13 4 0 0 1
2  14 5 0 0 1
4 C2 4 0 5 0
0

0101000
+14 0 -25 0 *
Ed
 1e-07 1 1 0
1  12 0 0 1
2  15 4 0 0 1
2  16 5 0 0 1
0

0101000
+15 0 -24 0 *
Wi

0101000
+9 0 -12 0 +23 1 -8 0 *
Fa
0  1e-07 4 0

0111000
+7 0 *
Wi

0101000
+8 0 -13 0 +22 1 -9 0 *
Fa
0  1e-07 5 0

0111000
+5 0 *
Sh

0101100
+28 0 +20 0 +17 0 -10 0 -6 0 -4 0 *
So

0100000
+3 0 *
Co

1100000
+2 0 *

+1 0 
##EGADS HEADER FILE-REV 1 ##
0
  1  1  6  8  12  8  3
1 5 1
_body
5
1 5 1
_brch
5
2 8 3
_tParams
 7.657751343219e-01  3.063100537288e-02  1.500000000000e+01 
    2 0 4
1 5 2
_body
1 3 
1 5 2
_brch
1 3 
1 5 2
_hist
1 5 
1 7 3
_faceID
1 3 1 
    2 1 4
1 5 2
_body
1 2 
1 5 2
_brch
1 2 
1 5 2
_hist
1 5 
1 7 3
_faceID
1 2 1 
    2 2 4
1 5 2
_body
1 4 
1 5 2
_brch
1 4 
1 5 2
_hist
1 5 
1 7 3
_faceID
1 4 1 
    2 3 4
1 5 2
_body
1 1 
1 5 2
_brch
1 1 
1 5 2
_hist
1 5 
1 7 3
_faceID
1 1 1 
    2 4 4
1 5 2
_body
4 4 
1 5 2
_brch
4 4 
1 5 2
_hist
4 5 
1 7 3
_faceID
4 4 1 
    2 5 4
1 5 2
_body
4 3 
1 5 2
_brch
4 3 
1 5 2
_hist
4 5 
1 7 3
_faceID
4 3 1 
    4 0 3
1 5 2
_body
1 203 
1 6 1
_nface
2
1 7 5
_edgeID
1 2 1 3 1 
    4 1 3
1 5 2
_body
1 304 
1 6 1
_nface
2
1 7 5
_edgeID
1 3 1 4 2 
    4 2 3
1 5 2
_body
1 103 
1 6 1
_nface
2
1 7 5
_edgeID
1 1 1 3 1 
    4 3 3
1 5 2
_body
1 304 
1 6 1
_nface
2
1 7 5
_edgeID
1 3 1 4 1 
    4 4 3
1 5 2
_body
1 204 
1 6 1
_nface
2
1 7 5
_edgeID
1 2 1 4 1 
    4 5 3
1 5 2
_body
5 0 
1 6 1
_nface
2
1 7 5
_edgeID
1 2 4 4 1 
    4 6 3
1 5 2
_body
5 0 
1 6 1
_nface
2
1 7 5
_edgeID
1 2 4 3 1 
    4 7 3
1 5 2
_body
1 104 
1 6 1
_nface
2
1 7 5
_edgeID
1 1 1 4 1 
    4 8 3
1 5 2
_body
5 0 
1 6 1
_nface
2
1 7 5
_edgeID
1 1 4 3 1 
    4 9 3
1 5 2
_body
5 0 
1 6 1
_nface
2
1 7 5
_edgeID
1 1 4 4 1 
    4 10 3
1 5 2
_body
4 304 
1 6 1
_nface
2
1 7 5
_edgeID
4 3 4 4 1 
    4 11 3
1 5 2
_body
4 304 
1 6 1
_nface
2
1 7 5
_edgeID
4 3 4 4 2 
    5 0 2
1 7 1
_nodeID
1
1 6 1
_nedge
3
    5 1 2
1 7 1
_nodeID
2
1 6 1
_nedge
3
    5 2 2
1 7 1
_nodeID
3
1 6 1
_nedge
3
    5 3 2
1 7 1
_nodeID
4
1 6 1
_nedge
3
    5 4 2
1 7 1
_nodeID
5
1 6 1
_nedge
3
    5 5 2
1 7 1
_nodeID
6
1 6 1
_nedge
3
    5 6 2
1 7 1
_nodeID
7
1 6 1
_nedge
3
    5 7 2
1 7 1
_nodeID
8
1 6 1
_nedge
3
    0 0 0
